<?xml version="1.0" encoding="utf-8"?>
<svg viewBox="1.636 10.969 298.383 89.031" xmlns="http://www.w3.org/2000/svg">
  <path d="M 1.6360000007599593 26.935001770019532 Q 1.6360000007599593 23.56900177001953 2.6440000007599593 21.013001770019528 Q 3.65200000075996 18.457001770019527 5.45200000075996 16.70200177001953 Q 7.25200000075996 14.94700177001953 9.59200000075996 14.065001770019528 Q 11.932000000759961 13.183001770019526 14.57800000075996 13.183001770019526 Q 16.54000000075996 13.183001770019526 17.87200000075996 13.390001770019527 Q 19.20400000075996 13.597001770019528 20.09500000075996 13.84000177001953 Q 20.98600000075996 14.083001770019528 21.61600000075996 14.227001770019527 L 20.914000000759962 18.745001770019527 Q 20.59000000075996 18.52900177001953 19.897000000759963 18.187001770019528 Q 19.20400000075996 17.84500177001953 17.998000000759962 17.56600177001953 Q 16.792000000759963 17.28700177001953 14.95600000075996 17.28700177001953 Q 12.56200000075996 17.28700177001953 10.74400000075996 18.40300177001953 Q 8.926000000759961 19.51900177001953 7.9000000007599605 21.61600177001953 Q 6.87400000075996 23.71300177001953 6.87400000075996 26.629001770019528 Q 6.87400000075996 29.52700177001953 7.84600000075996 31.75000177001953 Q 8.81800000075996 33.97300177001953 10.663000000759961 35.23300177001953 Q 12.50800000075996 36.49300177001953 15.118000000759961 36.49300177001953 Q 16.37800000075996 36.49300177001953 17.638000000759963 36.22300177001953 Q 18.89800000075996 35.95300177001953 19.897000000759963 35.57500177001953 Q 20.896000000759962 35.19700177001953 21.36400000075996 34.80100177001953 L 21.36400000075996 39.10300177001953 Q 20.626000000759962 39.40900177001953 19.690000000759962 39.733001770019534 Q 18.754000000759962 40.05700177001953 17.539000000759962 40.282001770019534 Q 16.324000000759963 40.50700177001953 14.704000000759962 40.50700177001953 Q 10.63600000075996 40.50700177001953 7.71100000075996 38.81500177001953 Q 4.78600000075996 37.12300177001953 3.2110000007599595 34.07200177001953 Q 1.6360000007599593 31.02100177001953 1.6360000007599593 26.935001770019532 Z M 31.02805130004883 40.50700177001953 Q 29.15605130004883 40.50700177001953 27.73405130004883 39.75100177001953 Q 26.31205130004883 38.99500177001953 25.511051300048827 37.63600177001953 Q 24.71005130004883 36.27700177001953 24.71005130004883 34.45900177001953 Q 24.71005130004883 32.60500177001953 25.718051300048828 31.27300177001953 Q 26.72605130004883 29.941001770019533 28.436051300048828 29.22100177001953 Q 29.62405130004883 28.71700177001953 31.00105130004883 28.44700177001953 Q 32.37805130004883 28.17700177001953 33.755051300048834 28.06900177001953 Q 35.13205130004883 27.96100177001953 36.32005130004883 27.96100177001953 L 37.22005130004883 29.07700177001953 L 36.32005130004883 30.73300177001953 Q 35.65405130004883 30.751001770019528 34.79005130004883 30.84100177001953 Q 33.926051300048826 30.93100177001953 33.10705130004883 31.11100177001953 Q 32.28805130004883 31.29100177001953 31.730051300048828 31.56100177001953 Q 30.956051300048827 31.90300177001953 30.389051300048827 32.47900177001953 Q 29.822051300048827 33.05500177001953 29.822051300048827 34.17100177001953 Q 29.822051300048827 35.64700177001953 30.64105130004883 36.37600177001953 Q 31.46005130004883 37.105001770019534 32.86405130004883 37.105001770019534 Q 33.58405130004883 37.105001770019534 34.313051300048826 36.89800177001953 Q 35.042051300048826 36.69100177001953 35.59105130004883 36.42100177001953 Q 36.14005130004883 36.15100177001953 36.32005130004883 35.93500177001953 L 37.23805130004883 36.97900177001953 L 36.59005130004883 38.52700177001953 Q 35.780051300048825 39.24700177001953 34.34005130004883 39.87700177001953 Q 32.90005130004883 40.50700177001953 31.02805130004883 40.50700177001953 Z M 41.36005130004883 40.21900177001953 L 36.59005130004883 40.21900177001953 L 36.59005130004883 37.23100177001953 L 36.32005130004883 37.23100177001953 L 36.32005130004883 26.34100177001953 Q 36.32005130004883 24.739001770019527 35.47405130004883 24.23500177001953 Q 34.62805130004883 23.731001770019528 33.04405130004883 23.731001770019528 Q 31.910051300048828 23.731001770019528 30.68605130004883 23.93800177001953 Q 29.462051300048827 24.14500177001953 28.39105130004883 24.46900177001953 Q 27.320051300048828 24.79300177001953 26.654051300048827 25.17100177001953 L 25.538051300048828 21.85900177001953 Q 26.078051300048827 21.53500177001953 27.33805130004883 21.05800177001953 Q 28.59805130004883 20.58100177001953 30.23605130004883 20.22100177001953 Q 31.87405130004883 19.861001770019527 33.530051300048825 19.861001770019527 Q 36.12205130004883 19.861001770019527 37.86805130004883 20.46400177001953 Q 39.61405130004883 21.06700177001953 40.48705130004883 22.57000177001953 Q 41.36005130004883 24.07300177001953 41.36005130004883 26.79100177001953 Z M 51.402285461425784 26.59300177001953 L 51.15028546142578 23.11900177001953 Q 51.45628546142578 22.34500177001953 52.32028546142578 21.59800177001953 Q 53.18428546142578 20.85100177001953 54.36328546142578 20.36500177001953 Q 55.542285461425784 19.879001770019528 56.838285461425784 19.879001770019528 Q 57.432285461425785 19.879001770019528 57.90028546142578 19.93300177001953 Q 58.368285461425785 19.98700177001953 58.58428546142578 20.11300177001953 L 58.58428546142578 24.97300177001953 Q 58.33228546142578 24.82900177001953 57.801285461425785 24.65800177001953 Q 57.270285461425786 24.487001770019532 56.154285461425786 24.487001770019532 Q 54.91228546142578 24.487001770019532 53.99428546142578 24.84700177001953 Q 53.07628546142578 25.20700177001953 52.42828546142578 25.693001770019528 Q 51.780285461425784 26.179001770019532 51.402285461425784 26.59300177001953 Z M 46.65028546142578 40.21900177001953 L 46.65028546142578 20.18500177001953 L 50.98828546142578 20.18500177001953 L 51.29428546142578 23.11900177001953 L 51.69028546142578 24.27100177001953 L 51.69028546142578 40.21900177001953 Z M 62.3089885559082 40.21900177001953 L 62.3089885559082 10.969001770019528 L 67.36698855590821 10.969001770019528 L 67.36698855590821 40.21900177001953 Z M 81.06406634521484 40.50700177001953 Q 78.49006634521484 40.50700177001953 76.69906634521485 39.64300177001953 Q 74.90806634521485 38.77900177001953 73.80106634521485 37.285001770019534 Q 72.69406634521485 35.791001770019534 72.19906634521485 33.85600177001953 Q 71.70406634521484 31.92100177001953 71.72206634521484 29.77900177001953 Q 71.77606634521484 26.557001770019532 73.04506634521485 24.361001770019527 Q 74.31406634521484 22.16500177001953 76.49206634521485 21.04000177001953 Q 78.67006634521485 19.91500177001953 81.42406634521484 19.91500177001953 Q 84.86206634521484 19.91500177001953 86.92306634521485 21.40000177001953 Q 88.98406634521484 22.885001770019528 89.89306634521485 25.315001770019528 Q 90.80206634521485 27.745001770019527 90.74806634521485 30.60700177001953 Q 90.71206634521485 33.82900177001953 89.45206634521485 36.03400177001953 Q 88.19206634521484 38.239001770019534 86.02306634521484 39.37300177001953 Q 83.85406634521485 40.50700177001953 81.06406634521484 40.50700177001953 Z M 81.19006634521485 36.97900177001953 Q 83.45806634521485 36.99700177001953 84.51106634521484 35.28700177001953 Q 85.56406634521484 33.57700177001953 85.56406634521484 30.39100177001953 Q 85.56406634521484 28.48300177001953 85.14106634521485 26.91700177001953 Q 84.71806634521485 25.35100177001953 83.78206634521484 24.41500177001953 Q 82.84606634521485 23.47900177001953 81.31606634521485 23.46100177001953 Q 79.04806634521485 23.42500177001953 77.99506634521484 25.09900177001953 Q 76.94206634521484 26.77300177001953 76.94206634521484 29.88700177001953 Q 76.94206634521484 31.813001770019532 77.37406634521484 33.41500177001953 Q 77.80606634521484 35.01700177001953 78.74206634521485 35.98900177001953 Q 79.67806634521484 36.96100177001953 81.19006634521485 36.97900177001953 Z M 101.70767456054688 40.21900177001953 L 101.70767456054688 13.471001770019527 L 117.67367456054689 13.471001770019527 L 117.67367456054689 17.37700177001953 L 106.89167456054687 17.37700177001953 L 106.89167456054687 25.04500177001953 L 114.99167456054687 25.04500177001953 L 114.99167456054687 28.95100177001953 L 106.89167456054687 28.95100177001953 L 106.89167456054687 40.21900177001953 Z M 121.1640375366211 40.21900177001953 L 121.1640375366211 20.18500177001953 L 126.20403753662109 20.18500177001953 L 126.20403753662109 40.21900177001953 Z M 123.4140375366211 17.071001770019528 Q 122.17203753662109 17.071001770019528 121.2990375366211 16.306001770019527 Q 120.4260375366211 15.541001770019527 120.4260375366211 14.263001770019528 Q 120.4260375366211 13.399001770019527 120.9030375366211 12.688001770019529 Q 121.38003753662109 11.977001770019527 122.14503753662109 11.545001770019528 Q 122.91003753662109 11.11300177001953 123.7740375366211 11.11300177001953 Q 125.17803753662109 11.11300177001953 125.95203753662109 11.914001770019528 Q 126.72603753662109 12.715001770019526 126.72603753662109 13.939001770019527 Q 126.72603753662109 15.271001770019527 125.7360375366211 16.17100177001953 Q 124.74603753662109 17.071001770019528 123.4140375366211 17.071001770019528 Z M 132.12509655761718 40.21900177001953 L 132.12509655761718 20.18500177001953 L 136.6970965576172 20.18500177001953 L 136.7690965576172 22.399001770019527 Q 137.4530965576172 21.841001770019528 138.54209655761719 21.274001770019527 Q 139.63109655761718 20.707001770019527 140.9180965576172 20.31100177001953 Q 142.2050965576172 19.91500177001953 143.5190965576172 19.879001770019528 Q 146.6870965576172 19.80700177001953 148.13609655761718 21.54400177001953 Q 149.5850965576172 23.28100177001953 149.5850965576172 27.65500177001953 L 149.5850965576172 40.21900177001953 L 144.5270965576172 40.21900177001953 L 144.5270965576172 28.249001770019532 Q 144.5270965576172 25.855001770019527 143.8970965576172 24.85600177001953 Q 143.26709655761718 23.85700177001953 141.3230965576172 23.96500177001953 Q 140.7470965576172 23.98300177001953 140.0270965576172 24.16300177001953 Q 139.3070965576172 24.34300177001953 138.5600965576172 24.69400177001953 Q 137.8130965576172 25.04500177001953 137.16509655761718 25.56700177001953 L 137.16509655761718 40.21900177001953 Z M 163.0831474609375 40.50700177001953 Q 160.5091474609375 40.50700177001953 158.7181474609375 39.64300177001953 Q 156.9271474609375 38.77900177001953 155.8201474609375 37.285001770019534 Q 154.7131474609375 35.791001770019534 154.2181474609375 33.85600177001953 Q 153.7231474609375 31.92100177001953 153.7411474609375 29.77900177001953 Q 153.7951474609375 26.557001770019532 155.0641474609375 24.361001770019527 Q 156.3331474609375 22.16500177001953 158.5111474609375 21.04000177001953 Q 160.6891474609375 19.91500177001953 163.4431474609375 19.91500177001953 Q 166.8811474609375 19.91500177001953 168.9421474609375 21.40000177001953 Q 171.0031474609375 22.885001770019528 171.9121474609375 25.315001770019528 Q 172.8211474609375 27.745001770019527 172.7671474609375 30.60700177001953 Q 172.7311474609375 33.82900177001953 171.47114746093752 36.03400177001953 Q 170.2111474609375 38.239001770019534 168.0421474609375 39.37300177001953 Q 165.8731474609375 40.50700177001953 163.0831474609375 40.50700177001953 Z M 163.20914746093752 36.97900177001953 Q 165.4771474609375 36.99700177001953 166.5301474609375 35.28700177001953 Q 167.5831474609375 33.57700177001953 167.5831474609375 30.39100177001953 Q 167.5831474609375 28.48300177001953 167.1601474609375 26.91700177001953 Q 166.7371474609375 25.35100177001953 165.8011474609375 24.41500177001953 Q 164.8651474609375 23.47900177001953 163.3351474609375 23.46100177001953 Q 161.0671474609375 23.42500177001953 160.0141474609375 25.09900177001953 Q 158.9611474609375 26.77300177001953 158.9611474609375 29.88700177001953 Q 158.9611474609375 31.813001770019532 159.3931474609375 33.41500177001953 Q 159.8251474609375 35.01700177001953 160.7611474609375 35.98900177001953 Q 161.69714746093752 36.96100177001953 163.20914746093752 36.97900177001953 Z M 175.21332702636718 30.40900177001953 Q 175.21332702636718 27.45700177001953 176.2933270263672 25.08100177001953 Q 177.37332702636718 22.70500177001953 179.56932702636718 21.31000177001953 Q 181.76532702636717 19.91500177001953 185.1133270263672 19.91500177001953 Q 187.05732702636718 19.91500177001953 188.4433270263672 20.239001770019527 Q 189.8293270263672 20.56300177001953 190.31532702636719 20.905001770019528 L 189.6313270263672 24.79300177001953 Q 188.9473270263672 24.361001770019527 187.9303270263672 24.100001770019528 Q 186.9133270263672 23.83900177001953 185.4193270263672 23.83900177001953 Q 184.19532702636718 23.83900177001953 183.0253270263672 24.41500177001953 Q 181.85532702636718 24.99100177001953 181.0723270263672 26.29600177001953 Q 180.28932702636718 27.60100177001953 180.2173270263672 29.79700177001953 Q 180.1633270263672 32.11900177001953 180.8473270263672 33.64000177001953 Q 181.5313270263672 35.16100177001953 182.71932702636718 35.89900177001953 Q 183.9073270263672 36.63700177001953 185.3653270263672 36.63700177001953 Q 186.7873270263672 36.63700177001953 187.9843270263672 36.32200177001953 Q 189.1813270263672 36.00700177001953 189.8293270263672 35.64700177001953 L 190.6393270263672 38.70700177001953 Q 189.7573270263672 39.57100177001953 188.0383270263672 40.03900177001953 Q 186.31932702636718 40.50700177001953 184.4113270263672 40.50700177001953 Q 181.3873270263672 40.50700177001953 179.34432702636718 39.175001770019534 Q 177.30132702636718 37.843001770019534 176.2573270263672 35.56600177001953 Q 175.21332702636718 33.28900177001953 175.21332702636718 30.40900177001953 Z M 192.9958282470703 30.40900177001953 Q 192.9958282470703 27.45700177001953 194.07582824707032 25.08100177001953 Q 195.1558282470703 22.70500177001953 197.3518282470703 21.31000177001953 Q 199.5478282470703 19.91500177001953 202.8958282470703 19.91500177001953 Q 204.8398282470703 19.91500177001953 206.22582824707033 20.239001770019527 Q 207.61182824707032 20.56300177001953 208.0978282470703 20.905001770019528 L 207.4138282470703 24.79300177001953 Q 206.72982824707032 24.361001770019527 205.71282824707032 24.100001770019528 Q 204.69582824707032 23.83900177001953 203.20182824707032 23.83900177001953 Q 201.9778282470703 23.83900177001953 200.80782824707032 24.41500177001953 Q 199.6378282470703 24.99100177001953 198.85482824707032 26.29600177001953 Q 198.0718282470703 27.60100177001953 197.99982824707033 29.79700177001953 Q 197.94582824707032 32.11900177001953 198.62982824707032 33.64000177001953 Q 199.31382824707032 35.16100177001953 200.5018282470703 35.89900177001953 Q 201.68982824707032 36.63700177001953 203.14782824707032 36.63700177001953 Q 204.56982824707032 36.63700177001953 205.76682824707032 36.32200177001953 Q 206.96382824707032 36.00700177001953 207.61182824707032 35.64700177001953 L 208.42182824707032 38.70700177001953 Q 207.53982824707032 39.57100177001953 205.82082824707032 40.03900177001953 Q 204.1018282470703 40.50700177001953 202.19382824707031 40.50700177001953 Q 199.1698282470703 40.50700177001953 197.1268282470703 39.175001770019534 Q 195.0838282470703 37.843001770019534 194.03982824707032 35.56600177001953 Q 192.9958282470703 33.28900177001953 192.9958282470703 30.40900177001953 Z M 212.29032946777343 40.21900177001953 L 212.29032946777343 10.969001770019528 L 217.33032946777342 10.969001770019528 L 217.33032946777342 18.943001770019528 L 217.06032946777344 22.885001770019528 L 216.88032946777344 22.399001770019527 Q 217.56432946777343 21.82300177001953 218.63532946777343 21.24700177001953 Q 219.70632946777343 20.67100177001953 220.98432946777345 20.29300177001953 Q 222.26232946777344 19.91500177001953 223.55832946777343 19.879001770019528 Q 226.83432946777344 19.789001770019528 228.34632946777344 21.68800177001953 Q 229.85832946777344 23.58700177001953 229.85832946777344 27.85300177001953 L 229.85832946777344 40.21900177001953 L 224.80032946777345 40.21900177001953 L 224.80032946777345 28.249001770019532 Q 224.80032946777345 25.83700177001953 224.08932946777344 24.87400177001953 Q 223.37832946777343 23.911001770019528 221.52432946777344 23.98300177001953 Q 220.69632946777344 24.001001770019528 219.51732946777344 24.370001770019527 Q 218.33832946777343 24.739001770019527 217.33032946777342 25.56700177001953 L 217.33032946777342 40.21900177001953 Z M 235.58038122558594 40.21900177001953 L 235.58038122558594 20.18500177001953 L 240.62038122558593 20.18500177001953 L 240.62038122558593 40.21900177001953 Z M 237.83038122558594 17.071001770019528 Q 236.58838122558595 17.071001770019528 235.71538122558593 16.306001770019527 Q 234.84238122558594 15.541001770019527 234.84238122558594 14.263001770019528 Q 234.84238122558594 13.399001770019527 235.31938122558594 12.688001770019529 Q 235.79638122558595 11.977001770019527 236.56138122558593 11.545001770019528 Q 237.32638122558595 11.11300177001953 238.19038122558595 11.11300177001953 Q 239.59438122558595 11.11300177001953 240.36838122558595 11.914001770019528 Q 241.14238122558595 12.715001770019526 241.14238122558595 13.939001770019527 Q 241.14238122558595 15.271001770019527 240.15238122558594 16.17100177001953 Q 239.16238122558593 17.071001770019528 237.83038122558594 17.071001770019528 Z M 251.5634326171875 40.50700177001953 Q 249.6914326171875 40.50700177001953 248.2694326171875 39.75100177001953 Q 246.8474326171875 38.99500177001953 246.0464326171875 37.63600177001953 Q 245.2454326171875 36.27700177001953 245.2454326171875 34.45900177001953 Q 245.2454326171875 32.60500177001953 246.2534326171875 31.27300177001953 Q 247.2614326171875 29.941001770019533 248.9714326171875 29.22100177001953 Q 250.1594326171875 28.71700177001953 251.5364326171875 28.44700177001953 Q 252.9134326171875 28.17700177001953 254.2904326171875 28.06900177001953 Q 255.6674326171875 27.96100177001953 256.8554326171875 27.96100177001953 L 257.7554326171875 29.07700177001953 L 256.8554326171875 30.73300177001953 Q 256.1894326171875 30.751001770019528 255.32543261718752 30.84100177001953 Q 254.4614326171875 30.93100177001953 253.6424326171875 31.11100177001953 Q 252.8234326171875 31.29100177001953 252.2654326171875 31.56100177001953 Q 251.4914326171875 31.90300177001953 250.9244326171875 32.47900177001953 Q 250.3574326171875 33.05500177001953 250.3574326171875 34.17100177001953 Q 250.3574326171875 35.64700177001953 251.17643261718752 36.37600177001953 Q 251.9954326171875 37.105001770019534 253.3994326171875 37.105001770019534 Q 254.1194326171875 37.105001770019534 254.8484326171875 36.89800177001953 Q 255.5774326171875 36.69100177001953 256.1264326171875 36.42100177001953 Q 256.6754326171875 36.15100177001953 256.8554326171875 35.93500177001953 L 257.7734326171875 36.97900177001953 L 257.1254326171875 38.52700177001953 Q 256.3154326171875 39.24700177001953 254.8754326171875 39.87700177001953 Q 253.4354326171875 40.50700177001953 251.5634326171875 40.50700177001953 Z M 261.8954326171875 40.21900177001953 L 257.1254326171875 40.21900177001953 L 257.1254326171875 37.23100177001953 L 256.8554326171875 37.23100177001953 L 256.8554326171875 26.34100177001953 Q 256.8554326171875 24.739001770019527 256.0094326171875 24.23500177001953 Q 255.1634326171875 23.731001770019528 253.5794326171875 23.731001770019528 Q 252.4454326171875 23.731001770019528 251.2214326171875 23.93800177001953 Q 249.9974326171875 24.14500177001953 248.9264326171875 24.46900177001953 Q 247.8554326171875 24.79300177001953 247.1894326171875 25.17100177001953 L 246.0734326171875 21.85900177001953 Q 246.6134326171875 21.53500177001953 247.8734326171875 21.05800177001953 Q 249.1334326171875 20.58100177001953 250.77143261718751 20.22100177001953 Q 252.4094326171875 19.861001770019527 254.0654326171875 19.861001770019527 Q 256.6574326171875 19.861001770019527 258.4034326171875 20.46400177001953 Q 260.1494326171875 21.06700177001953 261.0224326171875 22.57000177001953 Q 261.8954326171875 24.07300177001953 261.8954326171875 26.79100177001953 Z M 271.93767822265625 26.59300177001953 L 271.68567822265624 23.11900177001953 Q 271.9916782226563 22.34500177001953 272.85567822265625 21.59800177001953 Q 273.7196782226562 20.85100177001953 274.89867822265626 20.36500177001953 Q 276.07767822265623 19.879001770019528 277.3736782226562 19.879001770019528 Q 277.9676782226563 19.879001770019528 278.43567822265624 19.93300177001953 Q 278.90367822265625 19.98700177001953 279.11967822265626 20.11300177001953 L 279.11967822265626 24.97300177001953 Q 278.86767822265625 24.82900177001953 278.33667822265625 24.65800177001953 Q 277.80567822265624 24.487001770019532 276.68967822265626 24.487001770019532 Q 275.44767822265624 24.487001770019532 274.52967822265623 24.84700177001953 Q 273.6116782226562 25.20700177001953 272.96367822265626 25.693001770019528 Q 272.31567822265623 26.179001770019532 271.93767822265625 26.59300177001953 Z M 267.18567822265624 40.21900177001953 L 267.18567822265624 20.18500177001953 L 271.52367822265626 20.18500177001953 L 271.82967822265624 23.11900177001953 L 272.22567822265626 24.27100177001953 L 272.22567822265626 40.21900177001953 Z M 290.3324150390625 40.50700177001953 Q 287.7584150390625 40.50700177001953 285.9674150390625 39.64300177001953 Q 284.1764150390625 38.77900177001953 283.0694150390625 37.285001770019534 Q 281.9624150390625 35.791001770019534 281.4674150390625 33.85600177001953 Q 280.9724150390625 31.92100177001953 280.9904150390625 29.77900177001953 Q 281.0444150390625 26.557001770019532 282.3134150390625 24.361001770019527 Q 283.5824150390625 22.16500177001953 285.7604150390625 21.04000177001953 Q 287.9384150390625 19.91500177001953 290.6924150390625 19.91500177001953 Q 294.1304150390625 19.91500177001953 296.1914150390625 21.40000177001953 Q 298.2524150390625 22.885001770019528 299.1614150390625 25.315001770019528 Q 300.0704150390625 27.745001770019527 300.0164150390625 30.60700177001953 Q 299.9804150390625 33.82900177001953 298.7204150390625 36.03400177001953 Q 297.4604150390625 38.239001770019534 295.2914150390625 39.37300177001953 Q 293.1224150390625 40.50700177001953 290.3324150390625 40.50700177001953 Z M 290.4584150390625 36.97900177001953 Q 292.7264150390625 36.99700177001953 293.7794150390625 35.28700177001953 Q 294.8324150390625 33.57700177001953 294.8324150390625 30.39100177001953 Q 294.8324150390625 28.48300177001953 294.4094150390625 26.91700177001953 Q 293.9864150390625 25.35100177001953 293.0504150390625 24.41500177001953 Q 292.1144150390625 23.47900177001953 290.5844150390625 23.46100177001953 Q 288.3164150390625 23.42500177001953 287.2634150390625 25.09900177001953 Q 286.2104150390625 26.77300177001953 286.2104150390625 29.88700177001953 Q 286.2104150390625 31.813001770019532 286.6424150390625 33.41500177001953 Q 287.0744150390625 35.01700177001953 288.0104150390625 35.98900177001953 Q 288.9464150390625 36.96100177001953 290.4584150390625 36.97900177001953 Z" style="white-space: pre;"/>
  <line style="paint-order: fill; fill: rgb(3, 76, 140); stroke: rgb(3, 76, 140);" x1="40" y1="50" x2="260" y2="50"/>
  <g transform="matrix(0.024999, 0, 0, 0.025, 129.823578, 59.824066)" style="">
    <path d="m1111.5 1167.7c12.699-133.31 10.559-258.62 8.2264-320.42l-143.8 249.06 0.2117 0.3142c-0.0488 0.0328-0.2675 0.1794-0.64 0.4279l-0.493 0.8541h-0.7924c-17.706 11.733-154.61 101.31-316.72 175.42-101.92 46.596-193.85 78.116-273.23 93.686-51.269 10.056-97.471 13.434-138.33 10.185 144.4 142.12 342.52 229.81 561.13 229.81 60.049 0 118.55-6.6301 174.82-19.173 29.582-34.931 54.808-82.6 75.345-142.53 25.58-74.648 43.843-168.06 54.28-277.63z"/>
    <path d="m639.1 516.15h0.7925c17.706-11.734 154.61-101.31 316.72-175.42 101.92-46.596 193.85-78.116 273.23-93.685 51.269-10.056 97.471-13.434 138.33-10.185-144.4-142.12-342.52-229.81-561.13-229.81-60.049 0-118.55 6.6301-174.82 19.173-29.582 34.931-54.808 82.6-75.345 142.53-25.58 74.648-43.843 168.06-54.28 277.63-12.699 133.31-10.559 258.62-8.2264 320.42l143.8-249.06-0.2115-0.3142c0.0487-0.0328 0.2673-0.1794 0.6399-0.4278l0.4931-0.8543z"/>
    <path d="m1234.8 271.26c-77.438 15.171-167.46 46.06-267.58 91.809-121.8 55.659-229.25 120.16-281.61 153.09h287.59l0.1664-0.3403c0.0529 0.0258 0.2892 0.1418 0.6906 0.3403h0.9865l0.396 0.6862c19.015 9.4673 165.04 83.238 310.28 186.58 91.316 64.972 164.58 128.82 217.75 189.78 34.431 39.473 60.501 77.891 78.119 114.99 16.643-64.267 25.504-131.67 25.504-201.14 0-209.04-80.185-399.34-211.46-541.86-44.988-8.0972-98.791-6.0956-160.84 6.0609z"/>
    <path d="m1484.9 909.55c-51.857-59.477-123.62-122-213.3-185.83-109.1-77.654-218.69-138.45-273.38-167.34l143.8 249.06 0.3779-0.0261c4e-3 0.0587 0.0217 0.3212 0.0505 0.7682l0.493 0.8542-0.3961 0.6861c1.3085 21.201 10.435 184.55-6.4392 362-10.609 111.57-29.276 206.94-55.482 283.47-16.969 49.555-37.205 91.341-60.524 125.15 261.82-72.164 469.85-274.06 550.59-532.21-15.454-43.107-44.133-88.813-85.791-136.59z"/>
    <path d="m379.35 1342.8c77.438-15.171 167.46-46.06 267.58-91.809 121.8-55.659 229.25-120.16 281.61-153.09h-287.59l-0.1664 0.3403c-0.0529-0.0259-0.2892-0.1418-0.6906-0.3403h-0.9865l-0.396-0.6862c-19.015-9.4673-165.04-83.238-310.28-186.58-91.316-64.972-164.58-128.82-217.75-189.78-34.432-39.473-60.501-77.891-78.119-114.99-16.642 64.267-25.504 131.67-25.504 201.14 0 209.04 80.185 399.34 211.46 541.86 44.988 8.0972 98.791 6.0955 160.84-6.061z"/>
    <path d="m129.19 704.55c51.857 59.477 123.62 122 213.3 185.83 109.1 77.654 218.69 138.45 273.38 167.34l-143.8-249.06-0.3779 0.026c-4e-3 -0.0586-0.0217-0.3212-0.0505-0.7681l-0.4931-0.8542 0.3961-0.6862c-1.3083-21.201-10.435-184.55 6.4392-362 10.609-111.57 29.276-206.94 55.482-283.47 16.969-49.555 37.205-91.341 60.524-125.15-261.82 72.164-469.85 274.06-550.59 532.21 15.454 43.107 44.133 88.813 85.791 136.59z"/>
  </g>
  <g transform="matrix(0.478134, 0, 0, 0.478134, 173.393463, 55.341145)" style="">
    <g id="layer1">
      <path style="opacity: 1; fill-opacity: 1; stroke: none; stroke-width: 1; stroke-linecap: square; stroke-linejoin: miter; stroke-miterlimit: 4; stroke-dasharray: none; stroke-dashoffset: 0; stroke-opacity: 1; paint-order: normal; fill: rgb(3, 76, 140);" d="M 44.403 19.204 C 39.012 19.216 29.083 21.909 29.083 23.998 L 29.083 27.981 L 29.083 36.975 L 61.365 28.325 L 60.786 21.133 L 60.786 20.683 C 60.786 19.38 60.732 19.292 59.073 19.292 C 54.975 19.292 44.403 19.204 44.403 19.204 Z M 127.042 19.204 C 127.042 19.204 116.47 19.292 112.372 19.292 C 110.713 19.292 110.659 19.38 110.659 20.683 L 110.659 21.133 L 110.079 28.325 L 142.362 36.975 L 142.362 27.981 L 142.362 23.998 C 142.362 21.909 132.433 19.216 127.042 19.204 Z" id="path929"/>
      <path style="opacity: 1; fill-opacity: 1; stroke: none; stroke-width: 1; stroke-linecap: square; stroke-linejoin: miter; stroke-miterlimit: 4; stroke-dasharray: none; stroke-dashoffset: 0; stroke-opacity: 1; paint-order: normal;" d="M 44.024 20.814 C 27.341 20.814 13.817 34.499 13.817 51.381 C 13.817 68.263 27.341 81.948 44.024 81.948 C 51.109 81.938 57.965 79.407 63.393 74.799 L 107.81 74.799 C 113.248 79.416 120.12 81.947 127.219 81.948 C 143.902 81.948 157.426 68.263 157.426 51.381 C 157.426 34.499 143.902 20.814 127.219 20.814 L 52.473 20.814 L 44.024 20.814 Z" id="path826"/>
      <circle style="opacity: 1; fill-opacity: 1; stroke: none; stroke-width: 1; stroke-linecap: square; stroke-linejoin: miter; stroke-miterlimit: 4; stroke-dasharray: none; stroke-dashoffset: 0; stroke-opacity: 1; paint-order: normal; fill: rgb(255, 255, 255);" id="path835" cx="126.831" cy="51.598" r="26.674"/>
      <rect transform="matrix(0.619169, 0.785258, -0.785258, 0.619169, 3.27629, 10.687857)" ry="9.07" rx="9.07" y="-89.273" x="110.187" height="31.198" width="13.84" id="rect853" style="opacity: 1; fill-opacity: 1; stroke: none; stroke-width: 1; stroke-linecap: square; stroke-linejoin: miter; stroke-miterlimit: 4; stroke-dasharray: none; stroke-dashoffset: 0; stroke-opacity: 1; paint-order: normal;"/>
      <path style="opacity: 0.89; fill-opacity: 1; stroke: none; stroke-width: 1; stroke-linecap: square; stroke-linejoin: miter; stroke-miterlimit: 4; stroke-dasharray: none; stroke-dashoffset: 0; stroke-opacity: 1; paint-order: normal; fill: rgb(3, 76, 140);" d="M 140.559 46.257 C 137.574 46.257 135.155 48.676 135.155 51.66 C 135.155 54.645 137.574 57.064 140.559 57.064 C 143.543 57.064 145.962 54.645 145.962 51.66 C 145.962 48.676 143.543 46.257 140.559 46.257 Z" id="path943"/>
      <path style="opacity: 0.89; fill-opacity: 1; stroke: none; stroke-width: 1; stroke-linecap: square; stroke-linejoin: miter; stroke-miterlimit: 4; stroke-dasharray: none; stroke-dashoffset: 0; stroke-opacity: 1; paint-order: normal; fill: rgb(255, 255, 255);" d="M 126.717 56.999 C 123.733 56.999 121.313 59.418 121.313 62.402 C 121.313 65.387 123.733 67.806 126.717 67.806 C 129.701 67.806 132.12 65.387 132.12 62.402 C 132.12 59.418 129.701 56.999 126.717 56.999 Z" id="path837"/>
      <rect style="opacity: 1; fill-opacity: 1; stroke: none; stroke-width: 1; stroke-linecap: square; stroke-linejoin: miter; stroke-miterlimit: 4; stroke-dasharray: none; stroke-dashoffset: 0; stroke-opacity: 1; paint-order: normal;" id="rect851" width="13.84" height="31.198" x="93.375" y="-84.992" rx="9.07" ry="9.07" transform="matrix(0.619169, 0.785258, -0.785258, 0.619169, 3.27629, 10.687857)"/>
      <path style="opacity: 0.89; fill-opacity: 1; stroke: none; stroke-width: 1; stroke-linecap: square; stroke-linejoin: miter; stroke-miterlimit: 4; stroke-dasharray: none; stroke-dashoffset: 0; stroke-opacity: 1; paint-order: normal; fill: rgb(255, 255, 255);" d="M 126.787 35.706 C 123.803 35.706 121.384 38.125 121.384 41.109 C 121.384 44.094 123.803 46.513 126.787 46.513 C 129.772 46.513 132.191 44.094 132.191 41.109 C 132.191 38.125 129.772 35.706 126.787 35.706 Z" id="path939"/>
      <path style="opacity: 0.89; fill-opacity: 1; stroke: none; stroke-width: 1; stroke-linecap: square; stroke-linejoin: miter; stroke-miterlimit: 4; stroke-dasharray: none; stroke-dashoffset: 0; stroke-opacity: 1; paint-order: normal; fill: rgb(3, 76, 140);" d="M 112.946 46.448 C 109.961 46.448 107.542 48.867 107.542 51.851 C 107.542 54.836 109.961 57.255 112.946 57.255 C 115.93 57.255 118.349 54.836 118.349 51.851 C 118.349 48.867 115.93 46.448 112.946 46.448 Z" id="circle841"/>
      <path style="opacity: 1; fill-opacity: 1; stroke: none; stroke-width: 1; stroke-linecap: square; stroke-linejoin: miter; stroke-miterlimit: 4; stroke-dasharray: none; stroke-dashoffset: 0; stroke-opacity: 1; paint-order: normal; fill: rgb(3, 76, 140);" d="M 75.39 51.729 C 74.91 51.714 74.422 51.86 74.01 52.177 L 67.995 56.819 C 67.055 57.544 66.882 58.885 67.608 59.826 C 68.333 60.766 69.674 60.939 70.614 60.213 L 76.63 55.571 C 77.57 54.846 77.743 53.505 77.017 52.565 C 76.609 52.036 76.006 51.749 75.39 51.729 Z M 91.106 51.729 C 90.626 51.714 90.138 51.86 89.727 52.177 L 83.711 56.819 C 82.771 57.544 82.599 58.885 83.324 59.826 C 84.05 60.766 85.39 60.939 86.331 60.213 L 92.346 55.571 C 93.286 54.846 93.459 53.505 92.733 52.565 C 92.325 52.036 91.723 51.749 91.106 51.729 Z" id="rect857"/>
      <circle style="opacity: 1; fill-opacity: 1; stroke: none; stroke-width: 1.4; stroke-linecap: round; stroke-linejoin: round; stroke-miterlimit: 4; stroke-dasharray: none; stroke-dashoffset: 0; stroke-opacity: 1; paint-order: fill; fill: rgb(255, 255, 255);" id="path918" cx="44.385" cy="51.453" r="16.509"/>
      <path style="opacity: 1; fill-opacity: 1; stroke: none; stroke-width: 0.7; stroke-linecap: round; stroke-linejoin: round; stroke-miterlimit: 4; stroke-dasharray: none; stroke-dashoffset: 0; stroke-opacity: 1; paint-order: normal;" d="M 41.543 39.439 C 40.604 39.439 39.848 40.194 39.848 41.133 L 39.848 47.481 L 33.501 47.481 C 32.562 47.481 31.806 48.236 31.806 49.175 L 31.806 54.476 C 31.806 55.415 32.562 56.172 33.501 56.172 L 39.848 56.172 L 39.848 62.518 C 39.848 63.457 40.604 64.214 41.543 64.214 L 46.844 64.214 C 47.783 64.214 48.539 63.457 48.539 62.518 L 48.539 56.172 L 54.886 56.172 C 55.825 56.172 56.581 55.415 56.581 54.476 L 56.581 49.175 C 56.581 48.236 55.825 47.481 54.886 47.481 L 48.539 47.481 L 48.539 41.133 C 48.539 40.194 47.783 39.439 46.844 39.439 Z" id="rect913"/>
      <text style="font-family: snes; font-size: 21.5346px; font-weight: 700; line-height: 26.9182px; stroke-width: 0.264583px; white-space: pre;" id="text844"/>
    </g>
  </g>
  <g transform="matrix(0.023022, 0, 0, 0.023022, 53.391529, 52.007923)" style="">
    <g transform="translate(0 1447.6)">
      <path transform="translate(0 -1447.6)" d="m505.6 390.6c-42.093 0-75.982 33.157-75.982 74.34v1359.9c0 39.163-5.5221 71.064 30.133 74.1h-249.71c-29.552 0-14.438 23.027-14.438 51.629v34.418c0 28.602 23.79 51.629 53.342 51.629h2587.1c29.552 0 53.344-23.027 53.344-51.629v-34.418c0-28.602 15.112-51.629-14.439-51.629h-249.71c35.655-3.0359 30.133-34.937 30.133-74.1v-1359.9c0-41.183-33.889-74.34-75.982-74.34h-2073.8zm656.45 18.029c10.802 0 19.559 8.5686 19.559 19.137 0 10.568-8.7569 19.135-19.559 19.135-10.802 0-19.559-8.5666-19.559-19.135s8.7569-19.137 19.559-19.137zm-658.3 56.453h2077.5v1359.6h-2077.5v-1359.6zm701.01 1434.1h675.48c-1.0085 14.395-11.023 25.633-23.32 25.633h-628.84c-12.298 0-22.312-11.238-23.32-25.633zm1371.5 40.723c15.908 0 28.805 12.482 28.805 27.879-1e-4 15.397-12.897 27.879-28.805 27.879-15.908-1e-4 -28.805-12.482-28.805-27.879 1e-4 -15.397 12.897-27.879 28.805-27.879zm90.848 0c15.908 0 28.804 12.482 28.805 27.879-1e-4 15.397-12.896 27.879-28.805 27.879-15.908-1e-4 -28.803-12.482-28.803-27.879s12.895-27.879 28.803-27.879zm90.85 0c15.908 0 28.803 12.482 28.803 27.879-1e-4 15.397-12.895 27.879-28.803 27.879-15.908-1e-4 -28.805-12.482-28.805-27.879 1e-4 -15.397 12.897-27.879 28.805-27.879zm-2447.4 18.465h151.14c7.388 0 13.336 4.1989 13.336 9.4141 0 5.2151-5.948 9.414-13.336 9.414h-151.14c-7.388 0-13.336-4.1989-13.336-9.414 0-5.2152 5.948-9.4141 13.336-9.4141z" style=""/>
    </g>
  </g>
  <path d="M 70.61350268554688 78.03349786376953 L 70.61350268554688 76.29699786376953 L 81.35450268554688 71.00699786376953 L 81.35450268554688 73.90499786376954 L 73.87950268554687 77.35499786376953 L 73.87950268554687 77.00999786376953 L 81.35450268554688 80.26449786376953 L 81.35450268554688 83.23149786376953 Z M 84.74569409179688 89.93599786376953 L 91.08219409179688 67.90199786376954 L 93.76169409179687 67.90199786376954 L 87.42519409179687 89.93599786376953 Z M 107.83679089355469 78.03349786376953 L 107.83679089355469 76.29699786376953 L 97.09579089355469 71.00699786376953 L 97.09579089355469 73.90499786376954 L 104.57079089355469 77.35499786376953 L 104.57079089355469 77.00999786376953 L 97.09579089355469 80.26449786376953 L 97.09579089355469 83.23149786376953 Z" style="white-space: pre; fill: rgb(3, 76, 140);"/>
</svg>